<svg xmlns="http://www.w3.org/2000/svg" width="360" height="408" viewBox="0 0 360 408" fill="none">
<mask id="mask0_37_106" style="mask-type:alpha" maskUnits="userSpaceOnUse" x="0" y="48" width="360" height="360">
<circle cx="180" cy="228" r="180" fill="#520A0A"/>
</mask>
<g mask="url(#mask0_37_106)">
<circle cx="180" cy="228" r="180" fill="url(#paint0_linear_37_106)"/>
<path d="M120.89 220.142L91.5137 163.55V95.2942L159.779 66.7822L209.882 92.1442L244.271 123.806L224.57 208.199L207.29 226.199L202.295 227.189C202.295 227.189 205.778 245.189 210.206 250.283C214.634 255.377 238.178 272.315 264.26 274.745L244.271 308.945H123.266L111.17 284.537L116.921 272.333C118.576 271.296 119.976 269.897 121.014 268.242C122.052 266.586 122.702 264.718 122.915 262.775C123.482 256.295 125.318 235.1 123.347 220.025L120.89 220.142Z" fill="#97AABF"/>
<path d="M274.952 160.526C273.152 158.906 272.36 155.594 272.36 155.594C292.772 132.842 265.718 137.198 262.316 137.036C258.914 136.874 253.73 124.886 253.73 124.886C271.838 124.094 260.858 109.694 260.858 109.694C280.298 100.46 260.858 92.0361 260.858 92.0361C260.048 83.4501 252.92 83.1261 252.92 83.1261C256.97 74.5401 249.842 81.1821 251.3 75.8361C252.758 70.4901 247.412 63.7941 247.412 63.7941C261.812 43.0941 238.178 43.8681 238.178 43.8681C232.832 28.8021 227.486 39.0081 223.922 40.4661C220.358 41.9241 218.9 46.6221 213.716 45.1641C210.8 44.4507 207.771 44.3222 204.806 44.7861C211.691 42.7341 206.912 33.9861 206.912 33.9861C212.096 33.8241 211.934 24.4281 211.934 24.4281C211.61 29.9361 201.728 37.5501 201.728 28.9281C201.728 21.5211 194.861 23.7621 192.971 24.5091C192.923 24.5294 192.871 24.5363 192.819 24.5293C192.768 24.5223 192.72 24.5016 192.679 24.4694C192.639 24.4371 192.607 24.3945 192.589 24.3461C192.571 24.2977 192.566 24.2452 192.575 24.1941C193.871 13.8261 176.78 22.6101 176.78 22.6101L176.996 27.8031C177.008 28.0799 176.95 28.3553 176.827 28.6038C176.705 28.8522 176.521 29.0658 176.294 29.2246C176.067 29.3834 175.804 29.4824 175.529 29.5124C175.253 29.5424 174.975 29.5024 174.719 29.3961L171.938 28.2981C171.137 27.9651 170.399 25.5981 171.038 26.2281C170.507 25.7061 169.4 24.4281 168.05 22.8441C169.291 23.2783 170.588 23.5299 171.902 23.5911C173.209 23.6754 174.51 23.3541 175.628 22.6711C176.746 21.9882 177.626 20.9768 178.148 19.7751C184.448 4.94315 168.491 6.39215 164.783 6.91415C167.141 6.51815 173.522 5.20415 162.245 4.11515L160.067 3.91715C159.024 2.3697 157.589 1.12724 155.909 0.317147C151.409 -1.78885 149.429 7.28315 149.429 7.28315C134.201 12.7911 141.005 25.2831 141.005 25.2831C141.005 25.2831 140.681 24.5991 135.497 22.5291C130.313 20.4591 134.201 22.8531 134.201 28.1451C134.201 33.4371 125.993 26.7411 119.945 26.7411C113.897 26.7411 118.865 30.0891 113.033 32.8971C107.201 35.7051 110.117 35.8131 102.989 39.1971C95.8607 42.5811 104.069 54.6411 103.421 54.9651C102.773 55.2891 96.0767 51.2931 91.1087 56.9091C86.1407 62.5251 89.6507 57.3951 77.3387 60.1491C65.0267 62.9031 67.4387 70.0491 67.4387 70.0491C49.6187 76.2051 63.3887 77.6631 57.8807 84.6291C52.3727 91.5951 54.1547 94.9971 54.1547 94.9971C54.1547 94.9971 62.9027 80.7411 60.3107 92.0811C57.7187 103.421 65.8187 98.3811 64.5227 102.287C63.2267 106.193 70.8227 104.231 67.9247 106.013C65.0267 107.795 67.7627 114.113 65.4947 114.275C63.2267 114.437 63.0647 118.325 61.8947 123.833C60.7247 129.341 56.3867 119.621 56.3867 119.621C51.8867 123.347 58.0067 127.883 52.6607 128.531C47.3147 129.179 57.6827 136.631 54.6047 137.441C51.5267 138.251 45.6947 148.619 53.4707 150.401C61.2467 152.183 57.9707 153.155 53.1467 155.675C48.3227 158.195 56.5487 156.575 50.3927 162.227C44.2367 167.879 58.6547 165.305 58.4927 169.841C58.3307 174.377 73.5587 169.841 67.7267 174.863C61.8947 179.885 66.7547 183.449 66.7547 183.449C59.8157 190.649 57.8267 185.249 57.2597 181.568C57.2387 181.443 57.1754 181.328 57.0804 181.243C56.9853 181.159 56.8641 181.109 56.7369 181.103C56.6097 181.096 56.4842 181.134 56.3812 181.209C56.2782 181.283 56.2039 181.391 56.1707 181.514C53.1017 193.304 68.0237 188.516 67.5647 191.549C67.0787 194.789 71.9387 190.415 73.8647 196.895C75.1967 201.332 72.1907 201.062 70.1657 200.441C70.1115 200.426 70.0536 200.43 70.0025 200.454C69.9515 200.478 69.9107 200.519 69.8877 200.571C69.8647 200.622 69.8611 200.68 69.8774 200.734C69.8938 200.788 69.929 200.834 69.9767 200.864C72.3257 202.43 76.6907 204.716 76.4567 199.964C76.1327 193.484 94.2767 200.126 86.0147 206.444C77.7527 212.762 93.6287 215.192 90.8747 216.65C88.1207 218.108 93.3047 221.51 93.3047 221.51C93.3047 221.51 96.7067 217.298 99.1367 225.56C101.567 233.822 89.5787 225.074 89.5787 225.074C96.2207 241.76 106.589 226.208 105.941 230.42C105.293 234.632 110.801 229.934 111.287 232.364C111.773 234.794 107.885 234.956 107.885 234.956C107.885 234.956 116.957 239.654 120.035 232.364C123.113 225.074 124.238 228.944 124.238 228.944L123.023 215.939C123.001 215.653 122.92 215.374 122.783 215.121C122.647 214.868 122.458 214.647 122.231 214.472C103.088 197.444 105.797 177.194 103.538 164.738C102.393 158.116 101.675 151.427 101.387 144.713C101.259 142.123 101.945 139.558 103.349 137.378C114.239 120.719 101.954 111.359 108.236 109.982C114.878 108.524 112.934 103.34 119.576 105.608C126.218 107.876 123.626 104.636 125.084 96.0501C126.542 87.4641 130.592 88.5981 133.022 92.4501C135.452 96.3021 146.162 78.1941 142.238 85.0341C138.314 91.8741 152.768 100.748 152.768 100.748C141.266 90.3801 154.712 77.4201 152.282 81.6321C149.852 85.8441 155.882 97.5081 156.17 90.5421C156.458 83.5761 176.582 82.9281 170.57 86.4921C164.558 90.0561 170.246 95.0781 170.246 95.0781C179.48 92.8101 178.184 105.932 178.184 105.932C184.988 102.854 177.05 92.8101 180.452 90.2181C183.854 87.6261 183.854 95.2401 183.854 100.424C183.854 105.608 190.334 102.368 192.44 108.2C194.546 114.032 194.546 103.7 194.546 103.7C196.652 111.962 211.07 109.046 213.014 116.498C214.958 123.95 221.762 126.218 217.226 134.156C212.69 142.094 217.064 154.568 217.064 154.568C217.064 154.568 218.684 153.11 215.768 178.868C212.852 204.626 201.368 211.754 201.368 211.754C200.882 232.814 207.038 243.992 207.038 243.992C211.088 245.792 214.166 240.266 214.166 240.266C227.774 246.566 220.16 234.596 220.16 234.596C229.556 232.49 224.534 225.524 224.534 225.524C241.382 222.77 226.334 217.91 242.534 216.29C258.734 214.67 252.254 200.9 252.254 200.9C261.326 206.894 251.768 216.29 251.768 216.29C270.56 213.698 254.684 195.716 260.516 194.096C266.348 192.476 260.354 186.482 260.354 186.482C268.616 179.678 262.784 177.248 257.114 176.438C251.444 175.628 258.41 170.138 258.41 170.138C263.918 172.244 265.052 163.982 265.052 163.982C278.012 156.206 284.33 174.188 284.33 174.188C287.264 165.386 276.734 162.146 274.952 160.526ZM66.6377 75.6381C64.6937 78.9861 66.4217 82.5501 64.4777 83.5221C62.5337 84.4941 61.7777 86.4381 61.4537 83.5221C61.1297 80.6061 59.7257 81.5781 60.4817 78.8781C61.2377 76.1781 59.8247 76.9342 63.4517 75.6381C67.0787 74.3421 66.6377 75.6381 66.6377 75.6381ZM61.2377 143.3C60.7505 145.139 60.0115 146.902 59.0417 148.538C56.5217 152.894 56.8457 148.394 52.2377 145.514C48.6377 143.228 53.7857 140.807 58.4387 140.114C58.8586 140.052 59.2875 140.094 59.6871 140.238C60.0866 140.382 60.4444 140.622 60.7286 140.937C61.0129 141.253 61.2146 141.633 61.316 142.046C61.4174 142.458 61.4152 142.889 61.3097 143.3H61.2377ZM77.8337 73.3701C76.9337 76.3941 78.7337 79.4181 76.0337 75.1701C73.3337 70.9221 73.4417 71.4801 71.5337 70.6251L71.1107 70.4361C70.9335 70.3621 70.7797 70.2413 70.6657 70.0868C70.5517 69.9322 70.4818 69.7496 70.4633 69.5585C70.4448 69.3673 70.4786 69.1748 70.5609 69.0012C70.6432 68.8277 70.771 68.6798 70.9307 68.5731C71.4347 68.2761 71.4437 68.8611 74.5307 67.8261C79.0307 66.3141 78.8507 61.7781 80.1467 65.3421C81.4427 68.9061 78.7697 70.3461 77.9057 73.3701H77.8337ZM110.234 49.5021C109.01 48.5976 108.06 47.3726 107.488 45.9624C106.916 44.5522 106.745 43.0115 106.994 41.5101C108.146 36.4341 114.626 52.9941 110.306 49.5021H110.234ZM145.874 21.8541C146.63 23.4741 138.746 22.8261 141.374 17.7501C144.002 12.6741 147.854 12.6741 147.854 12.6741C147.854 12.6741 145.19 20.2341 145.946 21.8541H145.874ZM165.836 13.1241C165.92 12.6209 166.153 12.1542 166.504 11.7838C166.855 11.4135 167.309 11.1563 167.807 11.0451C168.581 10.8381 169.607 10.1451 170.84 8.48915C173.54 4.70915 183.584 18.3891 173 21.4491C165.26 23.6811 165.332 16.8591 165.908 13.1241H165.836ZM163.604 15.1311C163.515 15.8996 163.515 16.6757 163.604 17.4441C159.032 11.6031 155.108 5.87015 160.715 10.3521C159.122 9.05615 165.017 4.43915 163.676 15.1311H163.604ZM158.177 24.9141C158.042 25.2201 157.583 24.9141 157.277 24.3291C157.016 24.468 156.793 24.6689 156.629 24.9141C156.332 25.5981 154.343 22.9341 156.629 22.3491C157.267 22.1693 157.939 22.1415 158.591 22.2681C159.102 22.1396 159.637 22.1372 160.15 22.261C160.662 22.3849 161.137 22.6313 161.534 22.9791C161.534 22.9791 158.438 24.1941 158.177 24.9141ZM162.389 19.9911C161.66 19.9011 163.586 17.2911 164.801 19.2891C166.016 21.2871 165.179 22.6461 165.179 22.6461C165.179 22.6461 163.118 20.0721 162.389 19.9911ZM250.652 85.0341C257.294 84.5481 248.915 95.0511 250.652 91.3342C253.244 85.8441 244.01 85.5201 250.652 85.0341ZM241.742 210.908C232.184 207.506 248.546 211.232 249.68 204.752C249.68 204.752 251.3 214.31 241.742 210.908ZM250.238 116.759C249.959 116.71 249.703 116.576 249.506 116.374C249.308 116.172 249.179 115.913 249.136 115.634C249.093 115.354 249.139 115.069 249.268 114.817C249.396 114.565 249.6 114.36 249.851 114.23C252.182 113.069 255.206 112.106 257.159 113.528C260.759 116.12 261.659 121.304 259.103 121.142C256.763 120.998 259.364 118.262 250.238 116.759ZM275.006 148.052C274.967 148.108 274.912 148.151 274.849 148.176C274.786 148.202 274.716 148.208 274.65 148.195C274.583 148.181 274.521 148.149 274.473 148.101C274.424 148.053 274.39 147.993 274.376 147.926C273.656 144.974 267.176 140.924 267.176 140.924C280.136 138.413 276.689 145.397 274.979 148.052H275.006ZM271.109 149.555C271.089 149.584 271.062 149.607 271.03 149.621C270.999 149.634 270.963 149.639 270.929 149.633C270.895 149.627 270.863 149.612 270.837 149.588C270.812 149.565 270.793 149.535 270.785 149.501C270.434 148.016 267.185 145.991 267.185 145.991C273.638 144.74 271.928 148.232 271.082 149.555H271.109Z" fill="#083248"/>
<path d="M116.624 271.604C116.942 271.445 117.29 271.353 117.645 271.336C118.001 271.319 118.356 271.376 118.688 271.504C119.02 271.632 119.322 271.828 119.574 272.079C119.826 272.33 120.023 272.632 120.152 272.963C123.239 281.063 136.613 307.478 177.914 301.763C224.588 295.328 223.679 274.601 231.158 263.855C231.689 263.09 266.087 273.269 266.987 273.503C269.933 274.281 272.947 274.775 275.987 274.979C282.287 275.411 282.512 273.035 284.861 274.763C286.562 276.005 312.941 284.51 327.638 289.163C330.545 290.091 333.133 291.818 335.106 294.146C337.079 296.474 338.359 299.31 338.798 302.33L340.958 317.261C341.565 321.366 341.277 325.553 340.116 329.536C338.954 333.519 336.946 337.204 334.228 340.339C331.51 343.474 328.147 345.985 324.369 347.699C320.591 349.414 316.487 350.292 312.338 350.273L154.838 349.742C151.061 350.1 147.257 350.024 143.498 349.517L58.3667 365.211C54.4928 364.561 50.9099 362.743 48.0977 360C39.8897 357.804 31.9077 348.996 39.4137 345C51.7797 338.403 20.5937 322.346 23.1497 320.69C28.0097 317.558 37.4057 308.162 48.0977 302.762C58.7897 297.362 78.3377 288.506 87.3377 287.21C94.8707 286.094 109.919 274.925 116.624 271.604Z" fill="#8C0E0F"/>
<path d="M122.267 214.4C122.267 214.4 146.657 228.728 159.779 226.298C172.901 223.868 197.579 215.318 201.404 211.718C201.404 211.718 172.325 238.124 161.804 236.828C151.283 235.532 124.661 216.398 122.267 214.4Z" fill="#B87618"/>
<path d="M360 321.5L334.5 293.5L237 336.5L24 321L16 323V344.5L42 398.5L170.5 455.5L296.5 434L346.5 381.5L360 321.5Z" fill="#202224"/>
</g>
<path d="M120.889 220.142L91.5134 163.55V95.2942L159.778 66.7822L209.881 92.1442L244.27 123.806L224.569 208.199L207.289 226.199L202.294 227.189C202.294 227.189 205.777 245.189 210.205 250.283C214.633 255.377 238.177 272.315 264.259 274.745L244.27 308.945H123.265L111.169 284.537L116.92 272.333C118.576 271.296 119.976 269.897 121.014 268.242C122.052 266.586 122.702 264.718 122.914 262.775C123.481 256.295 125.317 235.1 123.346 220.025L120.889 220.142Z" fill="#97AABF"/>
<path d="M274.951 160.526C273.151 158.906 272.359 155.594 272.359 155.594C292.771 132.842 265.717 137.198 262.315 137.036C258.913 136.874 253.729 124.886 253.729 124.886C271.837 124.094 260.857 109.694 260.857 109.694C280.297 100.46 260.857 92.0361 260.857 92.0361C260.047 83.4501 252.919 83.1261 252.919 83.1261C256.969 74.5401 249.841 81.1821 251.299 75.8361C252.757 70.4901 247.411 63.7941 247.411 63.7941C261.811 43.0941 238.177 43.8681 238.177 43.8681C232.831 28.8021 227.485 39.0081 223.921 40.4661C220.357 41.9241 218.899 46.6221 213.715 45.1641C210.8 44.4507 207.771 44.3222 204.805 44.7861C211.69 42.7341 206.911 33.9861 206.911 33.9861C212.095 33.8241 211.933 24.4281 211.933 24.4281C211.609 29.9361 201.727 37.5501 201.727 28.9281C201.727 21.5211 194.86 23.7621 192.97 24.5091C192.923 24.5294 192.87 24.5363 192.819 24.5293C192.768 24.5223 192.719 24.5016 192.679 24.4694C192.638 24.4371 192.607 24.3945 192.589 24.3461C192.57 24.2977 192.565 24.2452 192.574 24.1941C193.87 13.8261 176.779 22.6101 176.779 22.6101L176.995 27.8031C177.008 28.0799 176.95 28.3553 176.827 28.6038C176.704 28.8522 176.521 29.0658 176.294 29.2246C176.067 29.3834 175.804 29.4824 175.528 29.5124C175.253 29.5424 174.974 29.5024 174.718 29.3961L171.937 28.2981C171.136 27.9651 170.398 25.5981 171.037 26.2281C170.506 25.7061 169.399 24.4281 168.049 22.8441C169.29 23.2783 170.588 23.5299 171.901 23.5911C173.209 23.6754 174.51 23.3541 175.628 22.6711C176.746 21.9882 177.626 20.9768 178.147 19.7751C184.447 4.94315 168.49 6.39215 164.782 6.91415C167.14 6.51815 173.521 5.20415 162.244 4.11515L160.066 3.91715C159.024 2.3697 157.589 1.12724 155.908 0.317147C151.408 -1.78885 149.428 7.28315 149.428 7.28315C134.2 12.7911 141.004 25.2831 141.004 25.2831C141.004 25.2831 140.68 24.5991 135.496 22.5291C130.312 20.4591 134.2 22.8531 134.2 28.1451C134.2 33.4371 125.992 26.7411 119.944 26.7411C113.896 26.7411 118.864 30.0891 113.032 32.8971C107.2 35.7051 110.116 35.8131 102.988 39.1971C95.8604 42.5811 104.068 54.6411 103.42 54.9651C102.772 55.2891 96.0764 51.2931 91.1084 56.9091C86.1404 62.5251 89.6504 57.3951 77.3384 60.1491C65.0264 62.9031 67.4384 70.0491 67.4384 70.0491C49.6184 76.2051 63.3884 77.6631 57.8804 84.6291C52.3724 91.5951 54.1544 94.9971 54.1544 94.9971C54.1544 94.9971 62.9024 80.7411 60.3104 92.0811C57.7184 103.421 65.8184 98.3811 64.5224 102.287C63.2264 106.193 70.8224 104.231 67.9244 106.013C65.0264 107.795 67.7624 114.113 65.4944 114.275C63.2264 114.437 63.0644 118.325 61.8944 123.833C60.7244 129.341 56.3864 119.621 56.3864 119.621C51.8864 123.347 58.0064 127.883 52.6604 128.531C47.3144 129.179 57.6824 136.631 54.6044 137.441C51.5264 138.251 45.6944 148.619 53.4704 150.401C61.2464 152.183 57.9704 153.155 53.1464 155.675C48.3224 158.195 56.5484 156.575 50.3924 162.227C44.2364 167.879 58.6544 165.305 58.4924 169.841C58.3304 174.377 73.5584 169.841 67.7264 174.863C61.8944 179.885 66.7544 183.449 66.7544 183.449C59.8154 190.649 57.8264 185.249 57.2594 181.568C57.2385 181.443 57.1752 181.328 57.0801 181.243C56.985 181.159 56.8638 181.109 56.7367 181.103C56.6095 181.096 56.484 181.134 56.381 181.209C56.278 181.283 56.2037 181.391 56.1704 181.514C53.1014 193.304 68.0234 188.516 67.5644 191.549C67.0784 194.789 71.9384 190.415 73.8644 196.895C75.1964 201.332 72.1904 201.062 70.1654 200.441C70.1113 200.426 70.0533 200.43 70.0023 200.454C69.9512 200.478 69.9104 200.519 69.8875 200.571C69.8645 200.622 69.8608 200.68 69.8772 200.734C69.8935 200.788 69.9288 200.834 69.9764 200.864C72.3254 202.43 76.6904 204.716 76.4564 199.964C76.1324 193.484 94.2764 200.126 86.0144 206.444C77.7524 212.762 93.6284 215.192 90.8744 216.65C88.1204 218.108 93.3044 221.51 93.3044 221.51C93.3044 221.51 96.7064 217.298 99.1364 225.56C101.566 233.822 89.5784 225.074 89.5784 225.074C96.2204 241.76 106.588 226.208 105.94 230.42C105.292 234.632 110.8 229.934 111.286 232.364C111.772 234.794 107.884 234.956 107.884 234.956C107.884 234.956 116.956 239.654 120.034 232.364C123.112 225.074 124.237 228.944 124.237 228.944L123.022 215.939C123.001 215.653 122.919 215.374 122.783 215.121C122.646 214.868 122.458 214.647 122.23 214.472C103.087 197.444 105.796 177.194 103.537 164.738C102.393 158.116 101.675 151.427 101.386 144.713C101.259 142.123 101.945 139.558 103.348 137.378C114.238 120.719 101.953 111.359 108.235 109.982C114.877 108.524 112.933 103.34 119.575 105.608C126.217 107.876 123.625 104.636 125.083 96.0501C126.541 87.4641 130.591 88.5981 133.021 92.4501C135.451 96.3021 146.161 78.1941 142.237 85.0341C138.313 91.8741 152.767 100.748 152.767 100.748C141.265 90.3801 154.711 77.4201 152.281 81.6321C149.851 85.8441 155.881 97.5081 156.169 90.5421C156.457 83.5761 176.581 82.9281 170.569 86.4921C164.557 90.0561 170.245 95.0781 170.245 95.0781C179.479 92.8101 178.183 105.932 178.183 105.932C184.987 102.854 177.049 92.8101 180.451 90.2181C183.853 87.6261 183.853 95.2401 183.853 100.424C183.853 105.608 190.333 102.368 192.439 108.2C194.545 114.032 194.545 103.7 194.545 103.7C196.651 111.962 211.069 109.046 213.013 116.498C214.957 123.95 221.761 126.218 217.225 134.156C212.689 142.094 217.063 154.568 217.063 154.568C217.063 154.568 218.683 153.11 215.767 178.868C212.851 204.626 201.367 211.754 201.367 211.754C200.881 232.814 207.037 243.992 207.037 243.992C211.087 245.792 214.165 240.266 214.165 240.266C227.773 246.566 220.159 234.596 220.159 234.596C229.555 232.49 224.533 225.524 224.533 225.524C241.381 222.77 226.333 217.91 242.533 216.29C258.733 214.67 252.253 200.9 252.253 200.9C261.325 206.894 251.767 216.29 251.767 216.29C270.559 213.698 254.683 195.716 260.515 194.096C266.347 192.476 260.353 186.482 260.353 186.482C268.615 179.678 262.783 177.248 257.113 176.438C251.443 175.628 258.409 170.138 258.409 170.138C263.917 172.244 265.051 163.982 265.051 163.982C278.011 156.206 284.329 174.188 284.329 174.188C287.263 165.386 276.733 162.146 274.951 160.526ZM66.6374 75.6381C64.6934 78.9861 66.4214 82.5501 64.4774 83.5221C62.5334 84.4941 61.7774 86.4381 61.4534 83.5221C61.1294 80.6061 59.7254 81.5781 60.4814 78.8781C61.2374 76.1781 59.8244 76.9342 63.4514 75.6381C67.0784 74.3421 66.6374 75.6381 66.6374 75.6381ZM61.2374 143.3C60.7502 145.139 60.0112 146.902 59.0414 148.538C56.5214 152.894 56.8454 148.394 52.2374 145.514C48.6374 143.228 53.7854 140.807 58.4384 140.114C58.8584 140.052 59.2873 140.094 59.6868 140.238C60.0864 140.382 60.4442 140.622 60.7284 140.937C61.0126 141.253 61.2144 141.633 61.3158 142.046C61.4171 142.458 61.415 142.889 61.3094 143.3H61.2374ZM77.8334 73.3701C76.9334 76.3941 78.7334 79.4181 76.0334 75.1701C73.3334 70.9221 73.4414 71.4801 71.5334 70.6251L71.1104 70.4361C70.9333 70.3621 70.7795 70.2413 70.6655 70.0868C70.5515 69.9322 70.4815 69.7496 70.4631 69.5585C70.4446 69.3673 70.4783 69.1748 70.5606 69.0012C70.6429 68.8277 70.7707 68.6798 70.9304 68.5731C71.4344 68.2761 71.4434 68.8611 74.5304 67.8261C79.0304 66.3141 78.8504 61.7781 80.1464 65.3421C81.4424 68.9061 78.7694 70.3461 77.9054 73.3701H77.8334ZM110.233 49.5021C109.01 48.5976 108.06 47.3726 107.488 45.9624C106.916 44.5522 106.745 43.0115 106.993 41.5101C108.145 36.4341 114.625 52.9941 110.305 49.5021H110.233ZM145.873 21.8541C146.629 23.4741 138.745 22.8261 141.373 17.7501C144.001 12.6741 147.853 12.6741 147.853 12.6741C147.853 12.6741 145.189 20.2341 145.945 21.8541H145.873ZM165.835 13.1241C165.92 12.6209 166.153 12.1542 166.504 11.7838C166.855 11.4135 167.308 11.1563 167.806 11.0451C168.58 10.8381 169.606 10.1451 170.839 8.48915C173.539 4.70915 183.583 18.3891 172.999 21.4491C165.259 23.6811 165.331 16.8591 165.907 13.1241H165.835ZM163.603 15.1311C163.515 15.8996 163.515 16.6757 163.603 17.4441C159.031 11.6031 155.107 5.87015 160.714 10.3521C159.121 9.05615 165.016 4.43915 163.675 15.1311H163.603ZM158.176 24.9141C158.041 25.2201 157.582 24.9141 157.276 24.3291C157.016 24.468 156.793 24.6689 156.628 24.9141C156.331 25.5981 154.342 22.9341 156.628 22.3491C157.267 22.1693 157.939 22.1415 158.59 22.2681C159.102 22.1396 159.637 22.1372 160.15 22.261C160.662 22.3849 161.137 22.6313 161.533 22.9791C161.533 22.9791 158.437 24.1941 158.176 24.9141ZM162.388 19.9911C161.659 19.9011 163.585 17.2911 164.8 19.2891C166.015 21.2871 165.178 22.6461 165.178 22.6461C165.178 22.6461 163.117 20.0721 162.388 19.9911ZM250.651 85.0341C257.293 84.5481 248.914 95.0511 250.651 91.3342C253.243 85.8441 244.009 85.5201 250.651 85.0341ZM241.741 210.908C232.183 207.506 248.545 211.232 249.679 204.752C249.679 204.752 251.299 214.31 241.741 210.908ZM250.237 116.759C249.959 116.71 249.703 116.576 249.505 116.374C249.308 116.172 249.179 115.913 249.136 115.634C249.093 115.354 249.139 115.069 249.267 114.817C249.395 114.565 249.599 114.36 249.85 114.23C252.181 113.069 255.205 112.106 257.158 113.528C260.758 116.12 261.658 121.304 259.102 121.142C256.762 120.998 259.363 118.262 250.237 116.759ZM275.005 148.052C274.966 148.108 274.912 148.151 274.849 148.176C274.785 148.202 274.716 148.208 274.649 148.195C274.583 148.181 274.521 148.149 274.472 148.101C274.424 148.053 274.39 147.993 274.375 147.926C273.655 144.974 267.175 140.924 267.175 140.924C280.135 138.413 276.688 145.397 274.978 148.052H275.005ZM271.108 149.555C271.089 149.584 271.062 149.607 271.03 149.621C270.998 149.634 270.963 149.639 270.929 149.633C270.895 149.627 270.863 149.612 270.837 149.588C270.812 149.565 270.793 149.535 270.784 149.501C270.433 148.016 267.184 145.991 267.184 145.991C273.637 144.74 271.927 148.232 271.081 149.555H271.108Z" fill="#076FAA"/>
<path d="M158.662 22.2681C158.511 22.2835 158.36 22.3106 158.212 22.3491C157.994 22.3716 157.785 22.4511 157.606 22.5795C157.428 22.7079 157.286 22.8808 157.195 23.081C157.104 23.2812 157.067 23.5018 157.087 23.7207C157.108 23.9397 157.186 24.1494 157.312 24.3291C158.205 23.8118 159.135 23.3606 160.093 22.9791C159.696 22.6072 159.199 22.36 158.662 22.2681Z" fill="#083248"/>
<path d="M116.623 271.604C116.942 271.445 117.144 271.017 117.5 271C117.855 270.983 118.356 271.376 118.688 271.504C119.02 271.632 119.322 271.828 119.574 272.079C119.826 272.33 120.023 272.632 120.151 272.963C123.238 281.063 136.612 307.478 177.913 301.763C224.587 295.328 223.678 274.601 231.157 263.855C231.688 263.09 266.086 273.269 266.986 273.503C269.933 274.281 272.946 274.775 275.986 274.979C282.286 275.411 282.512 273.035 284.861 274.763C286.562 276.005 312.941 284.51 327.638 289.163C330.545 290.091 333.133 291.818 335.106 294.146C337.079 296.474 338.358 299.31 338.798 302.33L330.5 316.5C331.107 320.604 325.53 324.517 324.369 328.5C323.207 332.483 321.218 333.365 318.5 336.5C315.782 339.635 316.116 340.785 312.338 342.5C308.559 344.215 309.149 349.761 305 349.742H154.837C151.061 350.1 147.257 350.024 143.497 349.517L72.953 362.711C69.079 362.061 65.4962 360.243 62.684 357.5C54.476 355.304 46.494 346.496 54 342.5C66.366 335.903 23.9438 321.656 26.4998 320C31.3598 316.868 37.4055 308.162 48.0975 302.762C58.7895 297.362 78.3375 288.506 87.3375 287.21C94.8705 286.094 109.918 274.925 116.623 271.604Z" fill="#202224"/>
<path d="M122.266 214.4C122.266 214.4 146.656 228.728 159.778 226.298C172.9 223.868 197.578 215.318 201.403 211.718C201.403 211.718 172.324 238.124 161.803 236.828C151.282 235.532 124.66 216.398 122.266 214.4Z" fill="#076FAA"/>
<defs>
<linearGradient id="paint0_linear_37_106" x1="237" y1="375" x2="80" y2="-156" gradientUnits="userSpaceOnUse">
<stop stop-color="#005886"/>
<stop offset="1" stop-color="white" stop-opacity="0"/>
</linearGradient>
</defs>
</svg>